<?xml version="1.0" standalone="no"?>
<!DOCTYPE svg PUBLIC "-//W3C//DTD SVG 20010904//EN"
 "http://www.w3.org/TR/2001/REC-SVG-20010904/DTD/svg10.dtd">
<svg version="1.0" xmlns="http://www.w3.org/2000/svg"
 width="1060.000000pt" height="1060.000000pt" viewBox="0 0 1060.000000 1060.000000"
 preserveAspectRatio="xMidYMid meet">
<metadata>
Created by potrace 1.14, written by Peter Selinger 2001-2017
</metadata>
<g transform="translate(0.000000,1060.000000) scale(0.100000,-0.100000)"
fill="#000000" stroke="none">
<path d="M5035 10590 c-368 -21 -699 -71 -1047 -159 -786 -199 -1516 -580
-2144 -1117 -155 -133 -494 -478 -614 -624 -184 -226 -324 -422 -457 -640
-889 -1455 -1016 -3270 -341 -4843 449 -1047 1258 -1952 2247 -2512 688 -390
1367 -600 2186 -677 185 -17 728 -17 910 0 649 62 1239 226 1810 502 587 283
1075 633 1515 1087 399 410 700 839 955 1358 293 596 447 1138 522 1825 13
127 17 245 17 515 0 363 -9 486 -55 795 -256 1704 -1344 3185 -2904 3955 -700
345 -1441 524 -2230 539 -121 3 -287 1 -370 -4z m2017 -1508 c92 -53 168 -100
168 -103 0 -3 -180 -318 -401 -699 -388 -673 -400 -695 -386 -720 8 -14 175
-307 372 -652 l357 -628 377 0 c207 0 601 -3 876 -7 l500 -6 498 -859 c274
-472 497 -862 495 -867 -2 -4 -124 -218 -273 -474 l-269 -466 -66 62 c-74 71
-146 119 -226 152 -30 12 -55 25 -56 29 0 4 91 164 201 355 l202 349 -378 651
-378 651 -605 0 c-333 0 -669 3 -746 7 l-141 6 -40 -69 c-542 -937 -716 -1241
-716 -1250 0 -6 168 -302 374 -657 l374 -646 405 -1 405 0 -3 -122 c-3 -113 6
-190 33 -284 l7 -22 -424 5 -423 6 -403 -699 c-221 -385 -406 -704 -410 -711
-5 -8 -59 18 -182 89 -96 55 -179 104 -183 108 -4 4 175 323 398 710 223 387
405 707 405 712 0 5 -170 302 -377 660 l-377 651 -475 -8 c-421 -6 -473 -6
-468 8 27 71 35 322 12 395 l-7 22 474 0 473 0 370 641 c204 352 371 648 373
657 1 9 -163 307 -366 662 l-368 645 -754 3 -755 2 -370 -641 c-203 -353 -371
-647 -373 -655 -2 -8 87 -172 197 -366 111 -193 200 -352 199 -354 -2 -1 -32
-10 -68 -19 -84 -21 -212 -82 -272 -128 -34 -26 -49 -33 -56 -24 -5 7 -94 159
-197 340 l-189 327 -750 -2 -750 -3 -373 -645 c-205 -355 -373 -651 -373 -659
0 -7 168 -303 373 -657 l372 -643 623 -3 c342 -1 679 -3 749 -3 l127 0 201
347 c111 191 204 350 207 353 3 4 28 -10 55 -29 68 -48 164 -92 253 -115 41
-10 75 -22 77 -27 1 -5 -121 -220 -271 -479 l-272 -470 -659 -2 c-363 -2 -813
1 -1000 5 l-339 7 -498 858 -497 857 502 871 502 870 873 -3 874 -3 438 760
438 760 878 5 878 5 400 693 c312 541 403 692 415 687 9 -3 91 -50 183 -103z
m-2597 -4034 c128 -33 254 -137 315 -262 98 -200 65 -418 -89 -574 -191 -195
-494 -200 -695 -12 -164 154 -204 396 -100 602 34 68 124 160 191 195 125 67
250 84 378 51z m4425 -1479 c215 -49 380 -261 380 -489 0 -137 -47 -247 -150
-351 -194 -196 -502 -197 -698 -1 -155 156 -194 390 -97 582 34 67 133 170
196 205 112 61 252 81 369 54z"/>
</g>
</svg>
